<?xml version="1.0" standalone="no"?>
<!DOCTYPE svg PUBLIC "-//W3C//DTD SVG 20010904//EN"
 "http://www.w3.org/TR/2001/REC-SVG-20010904/DTD/svg10.dtd">
<svg version="1.0" xmlns="http://www.w3.org/2000/svg"
 width="1280.000000pt" height="1280.000000pt" viewBox="0 0 1280.000000 1280.000000"
 preserveAspectRatio="xMidYMid meet">
<metadata>
Created by potrace 1.16, written by Peter Selinger 2001-2019
</metadata>
<g transform="translate(0.000000,1280.000000) scale(0.100000,-0.100000)"
fill="#000000" stroke="none">
<path d="M1270 9534 c-174 -45 -324 -167 -406 -327 -75 -147 -69 50 -69 -2292
l0 -2100 23 -75 c61 -195 200 -341 400 -419 l67 -26 450 0 450 0 7 100 c37
507 409 946 916 1081 119 32 343 44 472 25 259 -38 499 -159 686 -346 148
-148 244 -303 305 -494 31 -97 59 -253 59 -328 l0 -43 1829 0 1829 0 6 23 c3
12 6 44 6 70 0 27 9 93 20 148 94 461 438 823 898 945 119 32 343 44 472 25
262 -39 499 -159 690 -351 213 -213 331 -470 356 -772 l7 -88 357 0 c323 0
364 2 434 20 175 45 319 160 401 321 69 136 67 85 62 1153 -4 1020 -4 1016
-57 1422 -37 280 -58 369 -260 1105 -219 798 -228 826 -329 946 -101 120 -221
204 -368 257 l-88 31 -4785 2 c-4148 1 -4792 0 -4840 -13z m2230 -1484 l0
-1120 -953 0 c-1040 0 -1012 -1 -1120 58 -75 40 -152 123 -194 210 l-38 76 -3
744 c-3 824 -4 813 61 921 40 66 130 151 193 182 99 48 93 47 1102 48 l952 1
0 -1120z m2770 0 l0 -1120 -1190 0 -1190 0 0 1120 0 1120 1190 0 1190 0 0
-1120z m2770 0 l0 -1120 -1195 0 -1195 0 0 1120 0 1120 1195 0 1195 0 0 -1120z
m1719 1105 c158 -38 315 -162 384 -305 54 -110 389 -1452 389 -1555 -1 -96
-29 -170 -94 -241 -47 -51 -129 -104 -160 -104 -8 0 -72 139 -158 342 -149
353 -174 398 -237 424 -44 19 -117 18 -156 -2 -75 -38 -108 -90 -109 -168 -1
-45 16 -93 116 -329 64 -152 116 -279 116 -282 0 -3 -322 -5 -715 -5 l-715 0
0 1120 0 1120 638 0 c532 0 648 -3 701 -15z"/>
<path d="M3244 5325 c-640 -99 -1034 -759 -823 -1376 95 -278 326 -519 601
-628 270 -107 598 -92 858 39 209 105 361 261 466 475 84 174 99 243 98 465 0
170 -3 192 -27 275 -154 517 -646 832 -1173 750z m271 -600 c202 -53 336 -225
336 -430 0 -98 -19 -163 -69 -241 -92 -141 -229 -210 -401 -202 -74 3 -97 9
-162 41 -173 83 -278 272 -252 453 39 268 294 445 548 379z"/>
<path d="M9348 5325 c-410 -67 -737 -367 -845 -774 -23 -84 -26 -116 -26 -256
0 -141 3 -172 27 -260 97 -370 373 -650 741 -752 123 -34 321 -42 453 -19 440
77 789 435 853 875 17 123 6 313 -25 426 -123 448 -508 753 -971 770 -77 3
-151 -1 -207 -10z m277 -600 c128 -34 239 -128 297 -252 56 -118 49 -286 -15
-393 -62 -105 -152 -178 -261 -212 -95 -30 -220 -22 -309 20 -287 134 -354
496 -132 717 114 115 269 159 420 120z"/>
</g>
</svg>
