<?xml version="1.0" standalone="no"?>
<!DOCTYPE svg PUBLIC "-//W3C//DTD SVG 20010904//EN"
 "http://www.w3.org/TR/2001/REC-SVG-20010904/DTD/svg10.dtd">
<svg version="1.0" xmlns="http://www.w3.org/2000/svg"
 width="1280.000000pt" height="1280.000000pt" viewBox="0 0 1280.000000 1280.000000"
 preserveAspectRatio="xMidYMid meet">
<metadata>
Created by potrace 1.16, written by Peter Selinger 2001-2019
</metadata>
<g transform="translate(0.000000,1280.000000) scale(0.100000,-0.100000)"
fill="#000000" stroke="none">
<path d="M7695 9525 c-128 -24 -229 -52 -392 -107 l-153 -52 0 -113 0 -113
313 0 312 0 182 -182 c177 -178 183 -187 269 -333 248 -424 425 -844 513
-1215 190 -807 -38 -1440 -675 -1868 -304 -205 -756 -370 -1198 -437 -92 -15
-163 -16 -445 -12 -351 5 -408 11 -581 53 -352 87 -540 298 -540 607 0 400
338 1047 897 1718 67 81 126 150 132 154 6 3 11 10 11 16 0 5 -730 9 -1928 9
l-1928 0 -50 -62 c-637 -796 -1065 -1498 -1181 -1938 -20 -73 -26 -121 -27
-210 -1 -104 2 -120 25 -170 29 -63 76 -113 133 -142 79 -41 153 -48 499 -48
180 0 327 -2 327 -4 0 -2 -20 -33 -45 -70 -223 -333 -247 -765 -63 -1131 56
-111 118 -196 213 -290 304 -301 747 -402 1160 -264 278 93 521 308 650 574
80 165 108 293 108 490 0 243 -51 417 -182 618 l-51 77 384 0 384 0 48 -52
c256 -285 166 -481 -256 -554 -52 -8 -97 -18 -99 -20 -13 -12 2120 9 2627 26
1104 37 1628 109 1937 262 163 82 267 174 497 443 237 277 363 386 558 485
216 108 460 152 726 130 283 -23 540 -86 1177 -286 9 -3 17 -1 17 5 0 17 -193
299 -274 401 -169 211 -383 402 -570 509 -232 132 -526 184 -781 140 -44 -8
-83 -14 -86 -14 -17 0 -815 987 -1205 1490 -565 728 -844 1141 -897 1325 -19
66 -71 121 -137 146 -63 23 -251 28 -355 9z m-4480 -4670 c194 -50 335 -204
365 -397 48 -307 -237 -589 -542 -539 -189 31 -345 172 -393 356 -88 338 235
666 570 580z"/>
<path d="M8608 9472 c-148 -43 -228 -72 -228 -80 0 -7 32 -114 72 -238 l72
-224 163 0 163 0 0 305 c0 168 -3 305 -7 304 -5 0 -110 -30 -235 -67z"/>
<path d="M2776 8192 c-102 -176 -186 -322 -186 -325 0 -4 844 -7 1875 -7
l1875 0 0 325 0 325 -1689 0 -1689 0 -186 -318z"/>
<path d="M800 5515 l0 -305 160 0 160 0 0 305 0 305 -160 0 -160 0 0 -305z"/>
<path d="M10622 5509 c-291 -38 -574 -202 -753 -438 -65 -87 -153 -264 -184
-374 -82 -292 -40 -626 113 -882 108 -181 284 -346 470 -439 139 -70 338 -116
501 -116 528 0 973 349 1103 867 19 75 23 114 22 268 0 162 -3 190 -27 278
-100 375 -373 665 -737 787 -156 53 -343 71 -508 49z m269 -657 c233 -61 390
-300 351 -534 -35 -205 -194 -364 -399 -400 -196 -33 -406 78 -497 264 -178
364 154 772 545 670z"/>
</g>
</svg>
