<svg width="400" height="400" viewBox="0 0 400 400" fill="none" xmlns="http://www.w3.org/2000/svg">
    <circle cx="200" cy="200" r="180" fill="#f3f4f6" />
    <rect x="140" y="160" width="120" height="140" rx="20" fill="#EF4444" />
    <path d="M160 160 V120 C160 80 240 80 240 120 V160" stroke="#EF4444" stroke-width="20"
        fill="none" />
    <circle cx="200" cy="220" r="20" fill="white" />
    <rect x="195" y="220" width="10" height="40" fill="white" />
    <circle cx="140" cy="300" r="15" fill="white" />
    <circle cx="180" cy="300" r="15" fill="white" />
    <circle cx="220" cy="300" r="15" fill="white" />
    <circle cx="260" cy="300" r="15" fill="white" />
    <path d="M100 160 L80 140 M300 160 L320 140" stroke="#EF4444" stroke-width="4" />
    <path d="M100 180 L80 180 M300 180 L320 180" stroke="#EF4444" stroke-width="4" />
    <path d="M100 200 L80 220 M300 200 L320 220" stroke="#EF4444" stroke-width="4" />
</svg>