<svg width="320" height="320" viewBox="0 0 320 320" fill="none" xmlns="http://www.w3.org/2000/svg">
    <!-- Background Circle -->
    <circle cx="160" cy="160" r="150" fill="#F3F4F6" />

    <!-- Lock Body -->
    <rect x="100" y="140" width="120" height="140" rx="60" fill="#EF4444" />

    <!-- Lock Shackle -->
    <path d="M140 140v-30c0-22.1 17.9-40 40-40s40 17.9 40 40v30"
        stroke="#DC2626"
        stroke-width="12"
        stroke-linecap="round"
        fill="none" />

    <!-- Keyhole -->
    <circle cx="160" cy="200" r="15" fill="#1F2937" />
    <rect x="155" y="200" width="10" height="30" rx="5" fill="#1F2937" />

    <!-- Stars/Sparkles -->
    <path d="M90 100l10-10 10 10-10 10z" fill="#DC2626" />
    <path d="M220 90l10-10 10 10-10 10z" fill="#DC2626" />
    <path d="M200 240l8-8 8 8-8 8z" fill="#F87171" />
    <path d="M80 200l8-8 8 8-8 8z" fill="#F87171" />
</svg>