<?xml version="1.0" encoding="UTF-8"?>
<svg xmlns="http://www.w3.org/2000/svg" xmlns:xlink="http://www.w3.org/1999/xlink" width="300px" height="100px" viewBox="0 0 300 100" version="1.1">
<g id="surface1">
<path style=" stroke:none;fill-rule:nonzero;fill:rgb(0%,0%,0%);fill-opacity:1;" d="M 227.175781 10.597656 C 226.421875 11.621094 225.25 12.425781 224.582031 12.425781 C 222.65625 12.425781 213.449219 16.667969 209.097656 19.515625 C 200.558594 25.21875 193.695312 35.085938 191.265625 44.957031 C 189.675781 51.460938 189.675781 54.167969 191.265625 60.820312 C 193.359375 69.589844 197.460938 76.097656 204.910156 82.601562 C 212.191406 89.035156 218.472656 92.179688 228.347656 94.371094 C 258.398438 101.097656 288.785156 80.335938 288.785156 52.996094 C 288.785156 35.527344 275.640625 19.003906 256.890625 13.085938 C 253.792969 12.0625 251.953125 11.039062 251.703125 10.160156 C 251.367188 9.0625 250.53125 8.773438 247.851562 8.773438 C 245.003906 8.773438 244.417969 8.992188 244.417969 10.234375 C 244.417969 11.402344 243.832031 11.695312 241.488281 11.695312 C 239.144531 11.695312 238.558594 11.402344 238.558594 10.234375 C 238.558594 8.917969 237.972656 8.773438 233.539062 8.773438 C 229.183594 8.773438 228.433594 8.992188 227.175781 10.597656 Z M 236.71875 15.496094 C 236.46875 17.761719 236.300781 17.910156 233.121094 17.910156 C 229.9375 17.910156 229.769531 17.761719 229.519531 15.496094 C 229.269531 13.15625 229.269531 13.15625 233.121094 13.15625 C 236.96875 13.15625 236.96875 13.15625 236.71875 15.496094 Z M 243.582031 15.351562 C 243.582031 17.179688 243.246094 17.542969 241.488281 17.542969 C 239.730469 17.542969 239.398438 17.179688 239.398438 15.351562 C 239.398438 13.523438 239.730469 13.15625 241.488281 13.15625 C 243.246094 13.15625 243.582031 13.523438 243.582031 15.351562 Z M 244.417969 20.46875 C 244.417969 21.636719 245.003906 21.929688 247.601562 21.929688 C 249.359375 21.929688 251.199219 21.5625 251.703125 21.125 C 253.125 19.882812 260.992188 23.464844 266.351562 27.777344 C 270.621094 31.140625 275.472656 37.28125 276.5625 40.714844 C 277.066406 42.03125 276.480469 42.542969 273.128906 44.078125 C 270.871094 45.027344 266.015625 46.273438 262.25 46.785156 L 255.386719 47.734375 L 251.785156 44.371094 C 247.601562 40.496094 245.003906 39.472656 239.3125 39.472656 C 234.039062 39.472656 231.195312 40.714844 227.09375 44.957031 L 223.746094 48.390625 L 217.96875 47.660156 C 210.351562 46.710938 202.566406 44.664062 202.066406 43.496094 C 201.226562 41.667969 206.082031 34.285156 211.105469 29.53125 C 216.460938 24.5625 226.757812 19.226562 227.511719 21.050781 C 227.679688 21.636719 229.6875 21.929688 233.203125 21.929688 C 237.972656 21.929688 238.558594 21.785156 238.558594 20.46875 C 238.558594 19.296875 239.144531 19.003906 241.488281 19.003906 C 243.832031 19.003906 244.417969 19.296875 244.417969 20.46875 Z M 246.011719 46.417969 C 251.367188 50.4375 251.03125 57.089844 245.257812 60.527344 C 237.054688 65.351562 226.421875 57.675781 230.191406 49.632812 C 232.617188 44.664062 241.15625 42.910156 246.011719 46.417969 Z M 276.394531 53.726562 C 279.410156 54.167969 279.410156 54.167969 278.90625 57.238281 C 277.734375 65.132812 272.964844 73.171875 266.265625 78.363281 C 261.746094 81.871094 251.199219 86.476562 248.519531 86.109375 C 245.675781 85.746094 244.253906 80.773438 244.921875 72.878906 C 245.425781 66.59375 245.589844 66.375 248.355469 64.546875 C 249.945312 63.449219 252.203125 61.402344 253.292969 60.015625 C 254.964844 57.75 256.390625 57.089844 263.003906 55.117188 C 267.269531 53.875 271.371094 52.996094 272.042969 53.070312 C 272.710938 53.214844 274.636719 53.507812 276.394531 53.726562 Z M 217.632812 56.066406 C 222.574219 57.382812 225.335938 58.480469 225.585938 59.355469 C 226.089844 60.671875 231.78125 65.425781 233.453125 65.863281 C 235.128906 66.375 236.382812 77.265625 235.210938 80.773438 C 232.953125 87.355469 233.371094 87.0625 228.347656 85.820312 C 215.039062 82.457031 203.824219 71.855469 200.976562 60.015625 C 200.472656 57.820312 200.308594 55.773438 200.640625 55.484375 C 201.226562 54.972656 203.738281 54.605469 208.675781 54.238281 C 209.515625 54.167969 213.53125 54.972656 217.632812 56.066406 Z M 217.632812 56.066406 "/>
<path style=" stroke:none;fill-rule:nonzero;fill:rgb(0%,0%,0%);fill-opacity:1;" d="M 236.382812 46.050781 C 233.371094 47.074219 231.027344 50.367188 231.027344 53.507812 C 231.027344 60.964844 242.828125 63.523438 247.183594 57.015625 C 248.941406 54.460938 248.941406 52.484375 247.347656 49.707031 C 245.257812 46.199219 240.484375 44.589844 236.382812 46.050781 Z M 236.382812 46.050781 "/>
<path style=" stroke:none;fill-rule:nonzero;fill:rgb(0%,0%,0%);fill-opacity:1;" d="M 126.980469 18.128906 C 121.121094 25.21875 120.535156 26.242188 120.535156 29.386719 L 120.535156 32.894531 L 129.324219 32.894531 C 137.613281 32.894531 138.28125 33.039062 140.207031 34.722656 C 141.546875 35.820312 142.300781 37.355469 142.300781 38.742188 C 142.300781 40.132812 141.546875 41.667969 140.207031 42.761719 C 138.28125 44.515625 137.777344 44.589844 126.394531 44.589844 L 114.675781 44.589844 L 114.675781 16.082031 L 107.144531 16.082031 L 107.144531 51.902344 L 138.785156 51.902344 C 156.863281 51.902344 171.597656 51.609375 173.1875 51.167969 C 176.449219 50.367188 180.386719 47.441406 182.144531 44.445312 C 183.984375 41.375 183.648438 35.378906 181.472656 32.015625 C 178.710938 27.851562 174.777344 25.949219 168.582031 25.949219 C 159.039062 25.949219 153.347656 31.726562 154.269531 40.496094 L 154.769531 45.027344 L 151.839844 44.738281 C 149.246094 44.445312 148.996094 44.226562 149.582031 42.835938 C 150.667969 40.277344 150.167969 34.722656 148.660156 32.457031 C 146.234375 28.875 142.214844 26.972656 136.105469 26.460938 L 130.582031 25.949219 L 135.269531 20.175781 C 137.777344 17.03125 139.789062 14.402344 139.621094 14.328125 C 139.453125 14.179688 138.03125 13.230469 136.355469 12.207031 L 133.34375 10.234375 Z M 172.769531 34.429688 C 174.441406 35.597656 174.945312 36.550781 174.945312 38.742188 C 174.945312 40.9375 174.441406 41.886719 172.769531 43.054688 C 171.511719 43.933594 169.671875 44.589844 168.667969 44.589844 C 167.660156 44.589844 165.820312 43.933594 164.566406 43.054688 C 162.890625 41.886719 162.386719 40.9375 162.386719 38.742188 C 162.386719 36.550781 162.890625 35.597656 164.566406 34.429688 C 165.820312 33.550781 167.660156 32.894531 168.667969 32.894531 C 169.671875 32.894531 171.511719 33.550781 172.769531 34.429688 Z M 172.769531 34.429688 "/>
<path style=" stroke:none;fill-rule:nonzero;fill:rgb(0%,0%,0%);fill-opacity:1;" d="M 81.613281 26.242188 C 72.40625 28.289062 67.550781 37.792969 71.988281 45.25 C 74.332031 49.269531 78.515625 51.390625 84.625 51.460938 C 87.304688 51.535156 89.566406 51.753906 89.566406 52.046875 C 89.566406 52.265625 87.890625 54.3125 85.796875 56.503906 L 82.113281 60.453125 L 85.378906 62.792969 L 88.558594 65.058594 L 91.324219 62.355469 C 95.003906 58.625 99.441406 50.21875 100.53125 44.808594 C 102.121094 37.132812 99.273438 29.898438 93.917969 27.484375 C 90.988281 26.167969 84.792969 25.511719 81.613281 26.242188 Z M 89.984375 34.648438 C 91.238281 35.746094 92.160156 37.644531 92.578125 39.839844 C 93.332031 44.371094 91.742188 45.613281 86.214844 45.027344 C 79.519531 44.296875 76.589844 39.109375 80.441406 34.796875 C 82.699219 32.238281 87.136719 32.164062 89.984375 34.648438 Z M 89.984375 34.648438 "/>
<path style=" stroke:none;fill-rule:nonzero;fill:rgb(0%,0%,0%);fill-opacity:1;" d="M 12.554688 27.925781 C 7.449219 30.261719 5.609375 32.75 5.191406 37.9375 C 4.855469 41.667969 5.105469 42.835938 6.949219 45.539062 C 10.628906 51.023438 12.640625 51.535156 33.230469 51.753906 L 50.894531 51.972656 L 51.226562 43.128906 C 51.394531 36.257812 51.730469 34.136719 52.734375 33.625 C 55.246094 32.238281 55.664062 33.40625 55.914062 42.617188 L 56.167969 51.902344 L 63.617188 51.902344 L 63.617188 26.167969 L 55.246094 26.460938 C 44.195312 26.753906 44.027344 26.902344 43.695312 36.914062 L 43.359375 44.589844 L 30.386719 44.589844 C 23.269531 44.589844 16.742188 44.296875 15.902344 43.859375 C 11.886719 42.03125 12.472656 35.160156 16.742188 33.625 C 19 32.820312 19.253906 32.382812 19.253906 29.53125 C 19.253906 25.730469 18.164062 25.4375 12.554688 27.925781 Z M 12.554688 27.925781 "/>
<path style=" stroke:none;fill-rule:nonzero;fill:rgb(0%,0%,0%);fill-opacity:1;" d="M 24.945312 56.359375 C 23.941406 56.796875 23.4375 57.96875 23.4375 59.648438 C 23.4375 61.621094 23.855469 62.355469 25.53125 63.011719 C 28.125 64.035156 31.722656 62.792969 31.890625 60.890625 C 32.226562 56.433594 28.960938 54.3125 24.945312 56.359375 Z M 24.945312 56.359375 "/>
<path style=" stroke:none;fill-rule:nonzero;fill:rgb(0%,0%,0%);fill-opacity:1;" d="M 35.824219 56.359375 C 33.734375 57.382812 33.816406 61.84375 35.910156 62.867188 C 38.335938 63.960938 40.011719 63.742188 41.9375 62.0625 C 45.703125 58.773438 40.511719 53.949219 35.824219 56.359375 Z M 35.824219 56.359375 "/>
<path style=" stroke:none;fill-rule:nonzero;fill:rgb(0%,0%,0%);fill-opacity:1;" d="M 18.75 69.808594 C 18.414062 70.46875 18.582031 71.34375 19.085938 71.785156 C 20.339844 72.878906 22.769531 71.855469 22.433594 70.394531 C 22.097656 68.714844 19.417969 68.273438 18.75 69.808594 Z M 18.75 69.808594 "/>
<path style=" stroke:none;fill-rule:nonzero;fill:rgb(0%,0%,0%);fill-opacity:1;" d="M 23.773438 69.808594 C 23.4375 70.46875 23.605469 71.34375 24.105469 71.785156 C 25.363281 72.878906 27.789062 71.855469 27.457031 70.394531 C 27.121094 68.714844 24.441406 68.273438 23.773438 69.808594 Z M 23.773438 69.808594 "/>
<path style=" stroke:none;fill-rule:nonzero;fill:rgb(0%,0%,0%);fill-opacity:1;" d="M 32.058594 69.882812 C 31.304688 71.5625 33.148438 72.808594 34.738281 71.636719 C 35.742188 70.90625 35.824219 70.46875 35.074219 69.738281 C 33.816406 68.421875 32.730469 68.421875 32.058594 69.882812 Z M 32.058594 69.882812 "/>
<path style=" stroke:none;fill-rule:nonzero;fill:rgb(0%,0%,0%);fill-opacity:1;" d="M 37.082031 69.882812 C 36.328125 71.5625 38.167969 72.808594 39.761719 71.636719 C 40.765625 70.90625 40.847656 70.46875 40.09375 69.738281 C 38.839844 68.421875 37.75 68.421875 37.082031 69.882812 Z M 37.082031 69.882812 "/>
<path style=" stroke:none;fill-rule:nonzero;fill:rgb(0%,0%,0%);fill-opacity:1;" d="M 46.039062 77.121094 L 46.039062 85.527344 L 57.589844 85.671875 C 63.867188 85.746094 70.230469 85.746094 71.566406 85.671875 C 72.992188 85.597656 74.582031 85.597656 75.167969 85.597656 C 75.667969 85.597656 77.425781 85.597656 78.933594 85.597656 C 80.355469 85.597656 84.125 85.597656 87.304688 85.597656 L 92.914062 85.597656 L 92.914062 77.558594 C 92.914062 69.957031 92.828125 69.445312 91.238281 69.445312 C 89.648438 69.445312 89.566406 69.957031 89.566406 76.023438 C 89.566406 82.820312 89.3125 83.332031 85.882812 82.164062 C 84.878906 81.796875 84.542969 80.703125 84.542969 77.777344 C 84.542969 74.34375 84.375 73.832031 82.867188 73.832031 C 81.445312 73.832031 81.195312 74.34375 81.195312 77.046875 C 81.195312 81.214844 80.523438 82.601562 78.597656 82.601562 C 77.175781 82.601562 77.007812 82.015625 77.007812 78.214844 C 77.007812 74.050781 76.925781 73.832031 74.917969 73.832031 C 73.074219 73.832031 72.90625 74.121094 72.65625 77.996094 C 72.40625 81.652344 72.152344 82.238281 70.730469 82.238281 C 69.308594 82.238281 69.058594 81.652344 68.804688 77.996094 C 68.554688 74.414062 68.304688 73.832031 66.964844 73.832031 C 65.542969 73.832031 65.289062 74.34375 65.289062 77.046875 C 65.289062 81.796875 64.703125 82.601562 61.441406 82.601562 L 58.59375 82.601562 L 58.59375 78.214844 C 58.59375 74.050781 58.511719 73.832031 56.5 73.832031 C 54.492188 73.832031 54.410156 74.050781 54.410156 78.214844 C 54.410156 82.382812 54.324219 82.601562 52.316406 82.601562 C 50.222656 82.601562 50.222656 82.601562 50.222656 75.65625 C 50.222656 68.714844 50.222656 68.714844 48.128906 68.714844 L 46.039062 68.714844 Z M 46.039062 77.121094 "/>
<path style=" stroke:none;fill-rule:nonzero;fill:rgb(0%,0%,0%);fill-opacity:1;" d="M 97.097656 77.121094 C 97.097656 85.015625 97.183594 85.527344 98.773438 85.527344 C 100.363281 85.527344 100.445312 85.015625 100.445312 77.121094 C 100.445312 69.226562 100.363281 68.714844 98.773438 68.714844 C 97.183594 68.714844 97.097656 69.226562 97.097656 77.121094 Z M 97.097656 77.121094 "/>
<path style=" stroke:none;fill-rule:nonzero;fill:rgb(0%,0%,0%);fill-opacity:1;" d="M 156.027344 69.808594 C 155.691406 70.46875 155.859375 71.34375 156.363281 71.785156 C 157.617188 72.878906 160.042969 71.855469 159.710938 70.394531 C 159.375 68.714844 156.695312 68.273438 156.027344 69.808594 Z M 156.027344 69.808594 "/>
<path style=" stroke:none;fill-rule:nonzero;fill:rgb(0%,0%,0%);fill-opacity:1;" d="M 161.050781 69.808594 C 160.714844 70.46875 160.882812 71.34375 161.382812 71.785156 C 162.640625 72.878906 165.066406 71.855469 164.730469 70.394531 C 164.398438 68.714844 161.71875 68.273438 161.050781 69.808594 Z M 161.050781 69.808594 "/>
<path style=" stroke:none;fill-rule:nonzero;fill:rgb(0%,0%,0%);fill-opacity:1;" d="M 136.441406 76.023438 C 136.441406 82.527344 136.441406 82.601562 134.347656 82.601562 C 132.339844 82.601562 132.253906 82.382812 132.253906 78.214844 C 132.253906 74.050781 132.171875 73.832031 130.160156 73.832031 C 128.152344 73.832031 128.070312 74.050781 128.070312 78.214844 C 128.070312 82.308594 127.984375 82.601562 126.144531 82.601562 C 124.46875 82.601562 124.21875 82.308594 124.554688 80.410156 C 125.808594 72.878906 113.085938 71.785156 108.648438 78.949219 C 105.636719 83.917969 107.226562 90.644531 111.410156 90.644531 L 113.671875 90.644531 L 112.082031 87.9375 C 109.402344 83.332031 110.15625 80.921875 113.421875 83.773438 L 115.429688 85.527344 L 170.757812 85.527344 L 170.757812 69.445312 L 168.667969 69.445312 C 166.574219 69.445312 166.574219 69.515625 166.574219 76.023438 C 166.574219 82.527344 166.574219 82.601562 164.480469 82.601562 C 162.472656 82.601562 162.386719 82.382812 162.386719 78.214844 C 162.386719 74.050781 162.304688 73.832031 160.296875 73.832031 C 158.285156 73.832031 158.203125 74.050781 158.203125 78.214844 L 158.203125 82.601562 L 153.265625 82.601562 C 149.832031 82.601562 147.824219 82.238281 146.988281 81.433594 C 145.230469 79.972656 145.3125 79.238281 147.320312 77.484375 C 148.660156 76.316406 149.332031 76.167969 150.667969 76.753906 C 152.59375 77.632812 154.019531 77.191406 154.019531 75.65625 C 154.019531 74.050781 150.753906 72.878906 147.65625 73.390625 C 144.140625 73.976562 142.300781 76.242188 142.300781 79.824219 C 142.300781 81.359375 141.964844 82.601562 141.460938 82.601562 C 140.960938 82.601562 140.625 79.898438 140.625 76.023438 C 140.625 69.515625 140.625 69.445312 138.53125 69.445312 C 136.441406 69.445312 136.441406 69.515625 136.441406 76.023438 Z M 120.117188 80.042969 C 120.117188 81.871094 119.78125 82.238281 118.109375 82.238281 C 115.429688 82.238281 114.007812 80.191406 115.511719 78.582031 C 116.097656 77.925781 117.4375 77.484375 118.359375 77.632812 C 119.699219 77.777344 120.117188 78.363281 120.117188 80.042969 Z M 120.117188 80.042969 "/>
<path style=" stroke:none;fill-rule:nonzero;fill:rgb(0%,0%,0%);fill-opacity:1;" d="M 19 75.292969 C 16.070312 77.265625 14.230469 80.410156 14.230469 83.332031 L 14.230469 85.527344 L 26.285156 85.527344 C 37.75 85.527344 38.503906 85.453125 40.679688 83.84375 C 43.777344 81.433594 43.777344 77.925781 40.679688 75.511719 C 38.167969 73.609375 36.246094 73.390625 33.148438 74.632812 C 30.71875 75.65625 28.878906 78.949219 29.714844 81.066406 C 30.050781 82.164062 29.882812 82.601562 28.960938 82.601562 C 28.042969 82.601562 27.621094 81.578125 27.457031 78.363281 L 27.203125 74.195312 L 24.191406 73.976562 C 22.183594 73.832031 20.589844 74.269531 19 75.292969 Z M 24.273438 80.117188 C 24.273438 82.457031 24.105469 82.601562 21.34375 82.601562 C 17.746094 82.601562 17.496094 81.140625 20.507812 78.507812 C 23.101562 76.242188 24.273438 76.753906 24.273438 80.117188 Z M 38.839844 79.09375 C 39.507812 80.117188 39.425781 80.628906 38.335938 81.578125 C 36.496094 83.1875 33.480469 82.308594 33.480469 80.042969 C 33.480469 77.339844 37.082031 76.679688 38.839844 79.09375 Z M 38.839844 79.09375 "/>
<path style=" stroke:none;fill-rule:nonzero;fill:rgb(0%,0%,0%);fill-opacity:1;" d="M 52.230469 88.816406 C 51.898438 89.472656 52.066406 90.351562 52.566406 90.789062 C 53.824219 91.886719 56.25 90.863281 55.914062 89.402344 C 55.582031 87.71875 52.902344 87.28125 52.230469 88.816406 Z M 52.230469 88.816406 "/>
<path style=" stroke:none;fill-rule:nonzero;fill:rgb(0%,0%,0%);fill-opacity:1;" d="M 57.253906 88.816406 C 56.917969 89.472656 57.085938 90.351562 57.589844 90.789062 C 58.84375 91.886719 61.273438 90.863281 60.9375 89.402344 C 60.601562 87.71875 57.925781 87.28125 57.253906 88.816406 Z M 57.253906 88.816406 "/>
<path style=" stroke:none;fill-rule:nonzero;fill:rgb(0%,0%,0%);fill-opacity:1;" d="M 125.894531 88.816406 C 125.558594 89.472656 125.726562 90.351562 126.226562 90.789062 C 127.484375 91.886719 129.910156 90.863281 129.574219 89.402344 C 129.242188 87.71875 126.5625 87.28125 125.894531 88.816406 Z M 125.894531 88.816406 "/>
<path style=" stroke:none;fill-rule:nonzero;fill:rgb(0%,0%,0%);fill-opacity:1;" d="M 130.914062 88.816406 C 130.582031 89.472656 130.746094 90.351562 131.25 90.789062 C 132.503906 91.886719 134.933594 90.863281 134.597656 89.402344 C 134.261719 87.71875 131.585938 87.28125 130.914062 88.816406 Z M 130.914062 88.816406 "/>
</g>
</svg>
